name 900061_42ik_rsw.mot
datacolumns 165
datarows 5
range 0.89166667 0.925
cursor 1.0 1.0 0.0
keys m_key
wrap
enforce_loops no
enforce_constraints no
calc_derivatives 0.008333
event_color 1.000000 0.000000 1.000000
endheader
                time	          calcn_r_tx	          calcn_r_ty	          calcn_r_tz	          calcn_r_r1	          calcn_r_r2	          calcn_r_r3	          calcn_l_tx	          calcn_l_ty	          calcn_l_tz	          calcn_l_r1	          calcn_l_r2	          calcn_l_r3	           pelvis_tz	           pelvis_tx	           pelvis_ty	         pelvis_tilt	         pelvis_list	     pelvis_rotation	       hip_flexion_r	     hip_adduction_r	      hip_rotation_r	        knee_angle_r	       ankle_angle_r	    subtalar_angle_r	         mtp_angle_r	       hip_flexion_l	     hip_adduction_l	      hip_rotation_l	        knee_angle_l	       ankle_angle_l	    subtalar_angle_l	         mtp_angle_l	    lumbar_extension	      lumbar_bending	     lumbar_rotation	     ground_force_px	     ground_force_py	     ground_force_pz	     ground_force_vx	     ground_force_vy	     ground_force_vz	     ground_force_px	     ground_force_py	     ground_force_pz	     ground_force_vx	     ground_force_vy	     ground_force_vz	     ground_torque_x	     ground_torque_y	     ground_torque_z	     ground_torque_x	     ground_torque_y	     ground_torque_z	           midhip_px	           midhip_py	           midhip_pz	            hip_r_px	            hip_r_py	            hip_r_pz	            hip_l_px	            hip_l_py	            hip_l_pz	           knee_r_px	           knee_r_py	           knee_r_pz	           knee_l_px	           knee_l_py	           knee_l_pz	          ankle_r_px	          ankle_r_py	          ankle_r_pz	          ankle_l_px	          ankle_l_py	          ankle_l_pz	          midasis_px	          midasis_py	          midasis_pz	           asis_r_px	           asis_r_py	           asis_r_pz	           asis_l_px	           asis_l_py	           asis_l_pz	           psis_r_px	           psis_r_py	           psis_r_pz	           psis_l_px	           psis_l_py	           psis_l_pz	     epicondLat_r_px	     epicondLat_r_py	     epicondLat_r_pz	     epicondLat_l_px	     epicondLat_l_py	     epicondLat_l_pz	     epicondMed_r_px	     epicondMed_r_py	     epicondMed_r_pz	     epicondMed_l_px	     epicondMed_l_py	     epicondMed_l_pz	   malleolusLat_r_px	   malleolusLat_r_py	   malleolusLat_r_pz	   malleolusLat_l_px	   malleolusLat_l_py	   malleolusLat_l_pz	  malleolusMedv_r_px	  malleolusMedv_r_py	  malleolusMedv_r_pz	  malleolusMedv_l_px	  malleolusMedv_l_py	  malleolusMedv_l_pz	             neck_px	             neck_py	             neck_pz	    subclavicle_r_px	    subclavicle_r_py	    subclavicle_r_pz	    subclavicle_l_px	    subclavicle_l_py	    subclavicle_l_pz	     sternalnotch_px	     sternalnotch_py	     sternalnotch_pz	   xyphoidprocess_px	   xyphoidprocess_py	   xyphoidprocess_pz	      thighwand_r_px	      thighwand_r_py	      thighwand_r_pz	      thighwand_l_px	      thighwand_l_py	      thighwand_l_pz	      upperleg1_r_px	      upperleg1_r_py	      upperleg1_r_pz	      upperleg1_l_px	      upperleg1_l_py	      upperleg1_l_pz	      upperleg2_r_px	      upperleg2_r_py	      upperleg2_r_pz	      upperleg2_l_px	      upperleg2_l_py	      upperleg2_l_pz	      shankwand_r_px	      shankwand_r_py	      shankwand_r_pz	      shankwand_l_px	      shankwand_l_py	      shankwand_l_pz	      lowerleg1_r_px	      lowerleg1_r_py	      lowerleg1_r_pz	      lowerleg1_l_px	      lowerleg1_l_py	      lowerleg1_l_pz	            toe_r_px	            toe_r_py	            toe_r_pz	            toe_l_px	            toe_l_py	            toe_l_pz
0.89166667	-0.81817945	0.11581905	0.24440285	1.04512819	-11.71831171	-21.5907399	-0.83418194	0.02846395	0.14267517	-1.84310066	-14.49963521	0.75109899	0.21239832	-0.66433785	0.8927181	5.88480523	0.13322924	-2.71822481	18.74273247	-1.40942863	-8.20648414	-55.00827741	8.9133158	0	0	-0.11852051	4.47927636	8.26294625	-21.77610283	16.91403946	0	0	-13.60495087	-2.56450874	5.47509672	-1.23076696	0	0.2488147	0	0	0	-0.72879019	0	0.14654797	0.44407672	269.6553314	18.85887491	0	0	0	0	0.61249972	0	-0.70862395	0.82413266	0.20691931	-0.71369574	0.82692049	0.28205883	-0.70355194	0.82134504	0.13177979	-0.56170587	0.46522264	0.29938348	-0.71438479	0.43964425	0.16776971	-0.76008627	0.14485598	0.25069534	-0.7966049	0.06803037	0.15354629	-0.66029281	0.90197022	0.2126026	-0.66758455	0.90115517	0.31225822	-0.6530014	0.90278503	0.11294751	-0.81702701	0.9197734	0.22525915	-0.81626255	0.92330347	0.17040764	-0.56813538	0.47154046	0.35654724	-0.66020871	0.45665212	0.11358783	-0.54471262	0.46605781	0.24495828	-0.69881931	0.44218838	0.20465015	-0.77543377	0.14865349	0.28579968	-0.78418978	0.06528843	0.11721163	-0.73064834	0.14321981	0.22769811	-0.77263183	0.07308573	0.18442358	-0.76466341	1.34307375	0.22544009	-0.6604151	1.26396834	0.27097331	-0.6631546	1.26167132	0.16630896	-0.67544504	1.27426191	0.21353231	-0.62631172	1.10610642	0.21706595	-0.49695861	0.68728794	0.30564273	-0.57466362	0.63426392	0.20589209	-0.59160881	0.6996457	0.33819924	-0.62620922	0.66683251	0.12631302	-0.56195558	0.61992639	0.34210697	-0.61917387	0.57995515	0.13628466	-0.73211738	0.24908256	0.36732449	-0.77059553	0.18089042	0.0502538	-0.71665948	0.25385132	0.32827111	-0.76610476	0.18578717	0.09324422	-0.68313814	0.08162298	0.3138437	-0.66758678	0.03866438	0.14360573
0.9	-0.77086296	0.10230526	0.24779112	1.33522936	-11.34964186	-17.18811014	-0.83415129	0.02887783	0.14424503	-1.93757439	-13.64639907	0.57987195	0.21243435	-0.64777462	0.89296674	5.49266729	-0.02763783	-1.87708993	19.94561776	-1.17372687	-8.68107324	-51.81997783	9.29452403	0	0	-1.51864902	4.0583537	8.31466489	-20.45068498	17.19560969	0	0	-13.43855121	-2.22971752	4.51665589	-1.22645617	0	0.24785834	0	0	0	-0.71289968	0	0.14646436	1.17778519	245.8443451	19.01315229	0	0	0	0	0.50432789	0	-0.69226348	0.82486026	0.20790077	-0.6965215	0.82799621	0.28307795	-0.68800528	0.82172461	0.13272362	-0.53954189	0.46862474	0.29956374	-0.71144687	0.44072425	0.16720538	-0.71586278	0.13346124	0.2534836	-0.79594231	0.0683816	0.15382049	-0.6433595	0.90239207	0.21273843	-0.64951019	0.90198539	0.31244404	-0.63720895	0.90279863	0.11303334	-0.79972587	0.92114113	0.2274467	-0.79958878	0.92474764	0.17258755	-0.54554422	0.47415052	0.35672759	-0.65636005	0.45584396	0.1127488	-0.52247006	0.46952594	0.24533135	-0.69538667	0.44258514	0.20420196	-0.73131483	0.13643908	0.2886228	-0.78410362	0.06561368	0.11729504	-0.68634119	0.13411523	0.23025933	-0.77226914	0.07332852	0.18440475	-0.74680568	1.34380054	0.22583341	-0.64298978	1.26433633	0.27197638	-0.64504332	1.26200747	0.16741754	-0.65761079	1.27465089	0.21449369	-0.60897507	1.10635737	0.21841727	-0.47805588	0.6914877	0.30586206	-0.56448093	0.63012475	0.20448937	-0.57280649	0.70254949	0.33830754	-0.61600576	0.66489267	0.12564247	-0.54199774	0.62325498	0.34232279	-0.61190466	0.57770387	0.13522477	-0.69461967	0.24034842	0.36947084	-0.77051368	0.181166	0.0501424	-0.67954096	0.24583044	0.33030916	-0.76561668	0.1859988	0.09302598	-0.63400217	0.07678331	0.31617052	-0.66739454	0.03860729	0.1433135
0.90833333	-0.72312964	0.08957386	0.25099425	1.6243945	-11.07111301	-12.90804903	-0.83410367	0.02909555	0.14666987	-2.01305153	-12.50252825	0.42969734	0.2121789	-0.63148669	0.89267251	5.11975819	-0.20559937	-0.9434926	20.96119922	-1.04563803	-9.34023603	-48.38744841	9.47274383	0	0	-2.8780966	3.60618085	8.15054027	-19.15388126	17.47293899	0	0	-13.18911119	-1.80668897	3.34358187	-1.21947226	0	0.24752386	0	0	0	-0.69524981	0	0.14641745	1.19681745	232.3556595	19.55502023	0	0	0	0	0.42347523	0	-0.67584402	0.82520622	0.20883823	-0.67916152	0.82864835	0.28404879	-0.67252639	0.82176443	0.13362775	-0.51820294	0.47120876	0.29978224	-0.70843883	0.44195692	0.16653828	-0.67078965	0.12254511	0.2565478	-0.79518815	0.06884902	0.1540818	-0.62633577	0.902399	0.21278293	-0.63116957	0.90233637	0.31253951	-0.62150187	0.90246161	0.11302681	-0.78243006	0.92217014	0.22988128	-0.78288119	0.92590749	0.17500039	-0.52383633	0.47605807	0.35691612	-0.65269517	0.45513928	0.11173968	-0.50154894	0.47183512	0.24618729	-0.69178442	0.44307861	0.20350614	-0.6864029	0.12468847	0.29167615	-0.78395398	0.06606947	0.11736531	-0.64119322	0.12542892	0.23323344	-0.77180369	0.07370609	0.18435198	-0.72893627	1.34415053	0.22620164	-0.62546129	1.26430377	0.27294495	-0.6269238	1.26203409	0.16851428	-0.63972859	1.27468492	0.2154549	-0.59153531	1.10626699	0.21957118	-0.4594327	0.69453199	0.30585002	-0.55411835	0.6258322	0.2024114	-0.55415716	0.70462078	0.33856463	-0.60588778	0.66285426	0.1245057	-0.5224591	0.62567565	0.34274118	-0.60476029	0.57543405	0.13363683	-0.65705311	0.23168722	0.37174341	-0.77042395	0.18158601	0.04999249	-0.64221881	0.23781359	0.3324896	-0.76510162	0.18633712	0.09276825	-0.58473601	0.07261876	0.31906205	-0.66714871	0.038543	0.1429834
0.91666667	-0.67495708	0.07748634	0.25534782	1.87232706	-10.68308307	-8.90163783	-0.83410955	0.02995543	0.14822991	-1.9906726	-11.36268584	0.08637155	0.21250047	-0.61461869	0.8920089	4.73857948	-0.19474657	-0.10281864	21.75192516	-1.11419681	-9.757943	-44.61186865	9.26895054	0	0	-4.20731871	3.26214555	7.90830408	-17.97626543	17.66329028	0	0	-12.93125495	-1.42012338	2.27378296	-1.20921609	0	0.24820447	0	0	0	-0.67821073	0	0.14647101	0.60204814	229.7260349	20.2403937	0	0	0	0	0.38254966	0	-0.65934534	0.82515838	0.20972571	-0.66160597	0.82885431	0.28496158	-0.65708468	0.82146279	0.13448997	-0.49759199	0.47294204	0.30001602	-0.70522225	0.4433162	0.16581688	-0.62500987	0.11235351	0.26002164	-0.79436231	0.06947241	0.15433772	-0.60922664	0.90199341	0.2127437	-0.61258457	0.90219978	0.31253911	-0.60586838	0.90178709	0.11294867	-0.7651716	0.92282789	0.23253721	-0.76610898	0.92673151	0.17760739	-0.50297173	0.47722558	0.35706876	-0.64909419	0.45454799	0.11063668	-0.48207074	0.4728382	0.24759254	-0.68791446	0.4436452	0.20262979	-0.64089897	0.11367609	0.29506147	-0.78374704	0.06669144	0.11743592	-0.59539547	0.11741373	0.23673185	-0.77124294	0.0742503	0.18428664	-0.71106055	1.34410315	0.22654355	-0.60784623	1.26386328	0.27387794	-0.60881495	1.26173015	0.16958783	-0.62181631	1.27434932	0.21640838	-0.57401193	1.10582022	0.22054215	-0.44110998	0.6963323	0.30539565	-0.54362396	0.62145826	0.19986829	-0.53560987	0.70582134	0.3389017	-0.59582752	0.66076848	0.12307504	-0.50328728	0.62713569	0.34330801	-0.59766355	0.57321135	0.13169374	-0.61967956	0.22336451	0.37412936	-0.7702797	0.18219288	0.04983567	-0.60493367	0.23003938	0.33480327	-0.76451704	0.18684085	0.0925073	-0.53552004	0.06926922	0.32256299	-0.66686762	0.03847264	0.14264293
0.925	-0.62674378	0.06658045	0.26098257	2.00051145	-9.96746651	-5.05851025	-0.83417574	0.03095502	0.15033525	-1.93878264	-10.05110532	-0.33334574	0.21264734	-0.59766028	0.89098645	4.30619289	-0.17162653	0.8668529	22.39876983	-1.22905803	-9.97042354	-40.5802186	8.85187939	0	0	-5.48224121	2.91166735	7.62860474	-16.78519815	17.75688302	0	0	-12.67980576	-1.06617678	1.23030618	-1.1961675	0	0.25011819	0	0	0	-0.66461891	0	0.1466707	0.46850209	237.7940496	20.91357112	0	0	0	0	0.33109604	0	-0.64273743	0.82471882	0.21057366	-0.64384695	0.8286101	0.2858233	-0.64162798	0.82082782	0.13532418	-0.47763567	0.47383037	0.30024568	-0.7016717	0.4447687	0.1650818	-0.57875889	0.1031246	0.26402562	-0.79348922	0.07028923	0.1545967	-0.59203832	0.90120069	0.21264884	-0.59379771	0.90159894	0.31245798	-0.59027846	0.9008025	0.11283995	-0.74794043	0.92308108	0.2353862	-0.74921463	0.92715139	0.18037446	-0.48287899	0.47765176	0.3571469	-0.64542938	0.45408186	0.10950936	-0.46409828	0.47248035	0.24950933	-0.68369453	0.44426252	0.20166845	-0.59506787	0.10365425	0.29888365	-0.78349388	0.06751274	0.1175202	-0.54924125	0.11030371	0.24083927	-0.77060311	0.07498549	0.18423185	-0.69318503	1.34365369	0.22686732	-0.59017727	1.2630385	0.27477591	-0.59073486	1.26107689	0.17062666	-0.6038984	1.27364475	0.2173419	-0.55643416	1.10501773	0.22139441	-0.4231315	0.69685941	0.30430167	-0.53305346	0.61707412	0.1971058	-0.51714147	0.706149	0.33919912	-0.58579331	0.65868319	0.12154179	-0.48445295	0.62762646	0.3439082	-0.59053182	0.57109586	0.12959681	-0.58273832	0.21561889	0.37664814	-0.7700412	0.18302514	0.04969871	-0.56793831	0.22272524	0.33727236	-0.76382474	0.1875472	0.09227371	-0.48656544	0.06685107	0.32665868	-0.6665685	0.03840033	0.14231258
